<svg id="图层_1" data-name="图层 1" xmlns="http://www.w3.org/2000/svg" viewBox="0 0 1024 1024"><defs><style>.cls-1{fill:#e6007a;}.cls-2{fill:#fff;}</style></defs><rect id="_1" data-name="1" class="cls-1" width="1024" height="1024" rx="512"/><polygon id="_1-2" data-name="1" class="cls-2" points="496 306 351 389 222 316 496 159 496 306"/><polygon id="_1-3" data-name="1" class="cls-2" points="802 683 528 839 528 692 673 609 802 683"/><polygon id="_1-4" data-name="1" class="cls-2" points="818 656 689 582 689 416 818 343 818 656"/><polygon id="_1-5" data-name="1" class="cls-2" points="335 582 206 656 206 343 335 416 335 582"/><polygon id="_1-6" data-name="1" class="cls-2" points="802 316 673 389 528 306 528 159 802 316"/><polygon id="_1-7" data-name="1" class="cls-2" points="496 839 351 757 206 840 206 692 351 609 496 692 496 839"/></svg>